<svg xmlns="http://www.w3.org/2000/svg" width="760" height="530" viewBox="0 0 760 530" font-family="system-ui, -apple-system, 'Segoe UI', sans-serif" font-size="12">
<defs>
<linearGradient id="bar0" x1="0" y1="0" x2="1" y2="0"><stop offset="0" stop-color="#58a6ff" stop-opacity="0.55"/><stop offset="1" stop-color="#58a6ff"/></linearGradient>
<linearGradient id="bar1" x1="0" y1="0" x2="1" y2="0"><stop offset="0" stop-color="#3fb950" stop-opacity="0.55"/><stop offset="1" stop-color="#3fb950"/></linearGradient>
</defs>
<rect x="0.5" y="0.5" width="759" height="529" rx="10" fill="#0d1117" stroke="#30363d"/>
<text x="16" y="24" font-size="15" font-weight="600" fill="#e6edf3">Decode memory</text>
<text x="16" y="42" fill="#9198a1">peak additional RSS of one decode / decoded geometry bytes — lower is better</text>
<rect x="588.0" y="16" width="10" height="10" rx="2" fill="#58a6ff"/>
<text x="602.0" y="25" fill="#e6edf3">draco-oxide</text>
<rect x="687.0" y="16" width="10" height="10" rx="2" fill="#3fb950"/>
<text x="701.0" y="25" fill="#e6edf3">Draco</text>
<line x1="355.4" y1="58.0" x2="355.4" y2="496.0" stroke="#21262d" stroke-width="1"/>
<text x="355.4" y="511.0" text-anchor="middle" fill="#9198a1">5</text>
<line x1="532.8" y1="58.0" x2="532.8" y2="496.0" stroke="#21262d" stroke-width="1"/>
<text x="532.8" y="511.0" text-anchor="middle" fill="#9198a1">10</text>
<line x1="178" y1="58.0" x2="178" y2="496.0" stroke="#3d444d" stroke-width="1"/>
<text x="170.0" y="83.0" text-anchor="end" fill="#e6edf3">DragonAttenuation (P, N, T)</text>
<path d="M178.0 64.0 h142.8 a4.0 4.0 0 0 1 4.0 4.0 v6.0 a4.0 4.0 0 0 1 -4.0 4.0 h-142.8 Z" fill="url(#bar0)"/>
<text x="330.8" y="75.0" fill="#9198a1">4.14</text>
<path d="M178.0 80.0 h188.4 a4.0 4.0 0 0 1 4.0 4.0 v6.0 a4.0 4.0 0 0 1 -4.0 4.0 h-188.4 Z" fill="url(#bar1)"/>
<text x="376.4" y="91.0" fill="#9198a1">5.42</text>
<text x="170.0" y="127.0" text-anchor="end" fill="#e6edf3">FlightHelmet (P, N, T)</text>
<path d="M178.0 108.0 h134.8 a4.0 4.0 0 0 1 4.0 4.0 v6.0 a4.0 4.0 0 0 1 -4.0 4.0 h-134.8 Z" fill="url(#bar0)"/>
<text x="322.8" y="119.0" fill="#9198a1">3.91</text>
<path d="M178.0 124.0 h167.9 a4.0 4.0 0 0 1 4.0 4.0 v6.0 a4.0 4.0 0 0 1 -4.0 4.0 h-167.9 Z" fill="url(#bar1)"/>
<text x="355.9" y="135.0" fill="#9198a1">4.85</text>
<text x="170.0" y="171.0" text-anchor="end" fill="#e6edf3">bldg_chiyoda_lod2 (P, N)</text>
<path d="M178.0 152.0 h423.0 a4.0 4.0 0 0 1 4.0 4.0 v6.0 a4.0 4.0 0 0 1 -4.0 4.0 h-423.0 Z" fill="url(#bar0)"/>
<text x="611.0" y="163.0" fill="#9198a1">12.0</text>
<path d="M178.0 168.0 h498.0 a4.0 4.0 0 0 1 4.0 4.0 v6.0 a4.0 4.0 0 0 1 -4.0 4.0 h-498.0 Z" fill="url(#bar1)"/>
<text x="686.0" y="179.0" fill="#9198a1">14.1</text>
<text x="170.0" y="215.0" text-anchor="end" fill="#e6edf3">bunny (P, N)</text>
<text x="184.0" y="207.0" fill="#9198a1">n/a</text>
<path d="M178.0 212.0 h159.6 a4.0 4.0 0 0 1 4.0 4.0 v6.0 a4.0 4.0 0 0 1 -4.0 4.0 h-159.6 Z" fill="url(#bar1)"/>
<text x="347.6" y="223.0" fill="#9198a1">4.61</text>
<text x="170.0" y="259.0" text-anchor="end" fill="#e6edf3">Corset (P, N, T)</text>
<text x="184.0" y="251.0" fill="#9198a1">n/a</text>
<text x="184.0" y="267.0" fill="#9198a1">n/a</text>
<text x="170.0" y="303.0" text-anchor="end" fill="#e6edf3">Duck (P, N, T)</text>
<text x="184.0" y="295.0" fill="#9198a1">n/a</text>
<text x="184.0" y="311.0" fill="#9198a1">n/a</text>
<text x="170.0" y="347.0" text-anchor="end" fill="#e6edf3">torus (P)</text>
<text x="184.0" y="339.0" fill="#9198a1">n/a</text>
<text x="184.0" y="355.0" fill="#9198a1">n/a</text>
<text x="170.0" y="391.0" text-anchor="end" fill="#e6edf3">bldg_894e93d9 (P, N)</text>
<text x="184.0" y="383.0" fill="#9198a1">n/a</text>
<text x="184.0" y="399.0" fill="#9198a1">n/a</text>
<text x="170.0" y="435.0" text-anchor="end" fill="#e6edf3">sphere (P, N)</text>
<text x="184.0" y="427.0" fill="#9198a1">n/a</text>
<text x="184.0" y="443.0" fill="#9198a1">n/a</text>
<text x="170.0" y="479.0" text-anchor="end" fill="#e6edf3">cube_quads (P, N, T)</text>
<text x="184.0" y="471.0" fill="#9198a1">n/a</text>
<text x="184.0" y="487.0" fill="#9198a1">n/a</text>
</svg>
