<svg xmlns="http://www.w3.org/2000/svg" width="760" height="398" viewBox="0 0 760 398" font-family="system-ui, -apple-system, 'Segoe UI', sans-serif" font-size="12">
<defs>
<linearGradient id="bar0" x1="0" y1="0" x2="1" y2="0"><stop offset="0" stop-color="#58a6ff" stop-opacity="0.55"/><stop offset="1" stop-color="#58a6ff"/></linearGradient>
<linearGradient id="bar1" x1="0" y1="0" x2="1" y2="0"><stop offset="0" stop-color="#3fb950" stop-opacity="0.55"/><stop offset="1" stop-color="#3fb950"/></linearGradient>
</defs>
<rect x="0.5" y="0.5" width="759" height="397" rx="10" fill="#0d1117" stroke="#30363d"/>
<text x="16" y="24" font-size="15" font-weight="600" fill="#e6edf3">Encode speed</text>
<text x="16" y="42" fill="#9198a1">input MB/s (raw geometry consumed per second) — higher is better</text>
<rect x="588.0" y="16" width="10" height="10" rx="2" fill="#58a6ff"/>
<text x="602.0" y="25" fill="#e6edf3">draco-oxide</text>
<rect x="687.0" y="16" width="10" height="10" rx="2" fill="#3fb950"/>
<text x="701.0" y="25" fill="#e6edf3">Draco</text>
<line x1="322.1" y1="58.0" x2="322.1" y2="364.0" stroke="#21262d" stroke-width="1"/>
<text x="322.1" y="379.0" text-anchor="middle" fill="#9198a1">50</text>
<line x1="466.2" y1="58.0" x2="466.2" y2="364.0" stroke="#21262d" stroke-width="1"/>
<text x="466.2" y="379.0" text-anchor="middle" fill="#9198a1">100</text>
<line x1="610.3" y1="58.0" x2="610.3" y2="364.0" stroke="#21262d" stroke-width="1"/>
<text x="610.3" y="379.0" text-anchor="middle" fill="#9198a1">150</text>
<line x1="178" y1="58.0" x2="178" y2="364.0" stroke="#3d444d" stroke-width="1"/>
<text x="170.0" y="83.0" text-anchor="end" fill="#e6edf3">DragonAttenuation (P, N, T)</text>
<path d="M178.0 64.0 h154.8 a4.0 4.0 0 0 1 4.0 4.0 v6.0 a4.0 4.0 0 0 1 -4.0 4.0 h-154.8 Z" fill="url(#bar0)"/>
<text x="342.8" y="75.0" fill="#9198a1">55.1</text>
<path d="M178.0 80.0 h152.3 a4.0 4.0 0 0 1 4.0 4.0 v6.0 a4.0 4.0 0 0 1 -4.0 4.0 h-152.3 Z" fill="url(#bar1)"/>
<text x="340.3" y="91.0" fill="#9198a1">54.2</text>
<text x="170.0" y="127.0" text-anchor="end" fill="#e6edf3">bunny (P, N)</text>
<path d="M178.0 108.0 h215.0 a4.0 4.0 0 0 1 4.0 4.0 v6.0 a4.0 4.0 0 0 1 -4.0 4.0 h-215.0 Z" fill="url(#bar0)"/>
<text x="403.0" y="119.0" fill="#9198a1">76.0</text>
<path d="M178.0 124.0 h224.1 a4.0 4.0 0 0 1 4.0 4.0 v6.0 a4.0 4.0 0 0 1 -4.0 4.0 h-224.1 Z" fill="url(#bar1)"/>
<text x="412.1" y="135.0" fill="#9198a1">79.1</text>
<text x="170.0" y="171.0" text-anchor="end" fill="#e6edf3">Duck (P, N, T)</text>
<path d="M178.0 152.0 h203.4 a4.0 4.0 0 0 1 4.0 4.0 v6.0 a4.0 4.0 0 0 1 -4.0 4.0 h-203.4 Z" fill="url(#bar0)"/>
<text x="391.4" y="163.0" fill="#9198a1">72.0</text>
<path d="M178.0 168.0 h214.2 a4.0 4.0 0 0 1 4.0 4.0 v6.0 a4.0 4.0 0 0 1 -4.0 4.0 h-214.2 Z" fill="url(#bar1)"/>
<text x="402.2" y="179.0" fill="#9198a1">75.7</text>
<text x="170.0" y="215.0" text-anchor="end" fill="#e6edf3">torus (P)</text>
<path d="M178.0 196.0 h356.3 a4.0 4.0 0 0 1 4.0 4.0 v6.0 a4.0 4.0 0 0 1 -4.0 4.0 h-356.3 Z" fill="url(#bar0)"/>
<text x="544.3" y="207.0" fill="#9198a1">125</text>
<path d="M178.0 212.0 h498.0 a4.0 4.0 0 0 1 4.0 4.0 v6.0 a4.0 4.0 0 0 1 -4.0 4.0 h-498.0 Z" fill="url(#bar1)"/>
<text x="686.0" y="223.0" fill="#9198a1">174</text>
<text x="170.0" y="259.0" text-anchor="end" fill="#e6edf3">bldg_894e93d9 (P, N)</text>
<path d="M178.0 240.0 h171.3 a4.0 4.0 0 0 1 4.0 4.0 v6.0 a4.0 4.0 0 0 1 -4.0 4.0 h-171.3 Z" fill="url(#bar0)"/>
<text x="359.3" y="251.0" fill="#9198a1">60.8</text>
<path d="M178.0 256.0 h191.0 a4.0 4.0 0 0 1 4.0 4.0 v6.0 a4.0 4.0 0 0 1 -4.0 4.0 h-191.0 Z" fill="url(#bar1)"/>
<text x="379.0" y="267.0" fill="#9198a1">67.7</text>
<text x="170.0" y="303.0" text-anchor="end" fill="#e6edf3">sphere (P, N)</text>
<path d="M178.0 284.0 h132.8 a4.0 4.0 0 0 1 4.0 4.0 v6.0 a4.0 4.0 0 0 1 -4.0 4.0 h-132.8 Z" fill="url(#bar0)"/>
<text x="320.8" y="295.0" fill="#9198a1">47.5</text>
<path d="M178.0 300.0 h168.6 a4.0 4.0 0 0 1 4.0 4.0 v6.0 a4.0 4.0 0 0 1 -4.0 4.0 h-168.6 Z" fill="url(#bar1)"/>
<text x="356.6" y="311.0" fill="#9198a1">59.9</text>
<text x="170.0" y="347.0" text-anchor="end" fill="#e6edf3">cube_quads (P, N, T)</text>
<path d="M178.0 328.0 h35.1 a4.0 4.0 0 0 1 4.0 4.0 v6.0 a4.0 4.0 0 0 1 -4.0 4.0 h-35.1 Z" fill="url(#bar0)"/>
<text x="223.1" y="339.0" fill="#9198a1">13.6</text>
<path d="M178.0 344.0 h30.2 a4.0 4.0 0 0 1 4.0 4.0 v6.0 a4.0 4.0 0 0 1 -4.0 4.0 h-30.2 Z" fill="url(#bar1)"/>
<text x="218.2" y="355.0" fill="#9198a1">11.9</text>
</svg>
